<svg xmlns="http://www.w3.org/2000/svg" width="16" height="16" viewBox="0 0 16 16" fill="none">
  <title>AI</title>
  <path d="M8 1.5L8.7 3.3C8.9 3.8 9.2 4.1 9.7 4.3L11.5 5L9.7 5.7C9.2 5.9 8.9 6.2 8.7 6.7L8 8.5L7.3 6.7C7.1 6.2 6.8 5.9 6.3 5.7L4.5 5L6.3 4.3C6.8 4.1 7.1 3.8 7.3 3.3L8 1.5Z" fill="#5B5BD6"/>
  <path d="M3.6 8.2L4 9.25C4.12 9.56 4.34 9.78 4.65 9.9L5.7 10.3L4.65 10.7C4.34 10.82 4.12 11.04 4 11.35L3.6 12.4L3.2 11.35C3.08 11.04 2.86 10.82 2.55 10.7L1.5 10.3L2.55 9.9C2.86 9.78 3.08 9.56 3.2 9.25L3.6 8.2Z" fill="#1F2937"/>
  <path d="M12.4 8.7L12.9 10C13.05 10.39 13.31 10.65 13.7 10.8L15 11.3L13.7 11.8C13.31 11.95 13.05 12.21 12.9 12.6L12.4 13.9L11.9 12.6C11.75 12.21 11.49 11.95 11.1 11.8L9.8 11.3L11.1 10.8C11.49 10.65 11.75 10.39 11.9 10L12.4 8.7Z" fill="#1F2937"/>
</svg>
