<svg width="16" height="16" version="1.1" xmlns="http://www.w3.org/2000/svg" desc="Created with imagetracer.js version 1.2.6" ><path fill="rgb(59,161,242)" stroke="rgb(59,161,242)" stroke-width="1" opacity="0.9686274509803922" d="M 6.5 7 L 6.5 10 Q 3.5 8.5 6.5 7 Z " /><path fill="rgb(59,161,242)" stroke="rgb(59,161,242)" stroke-width="1" opacity="0.9686274509803922" d="M 2.5 8 L 3.5 10 Q 0.7 10.7 2.5 8 Z " /><path fill="rgb(234,241,242)" stroke="rgb(234,241,242)" stroke-width="1" opacity="0.34509803921568627" d="M 8.5 2 L 16 2.5 L 8.5 3 L 8.5 2 Z " /><path fill="rgb(234,238,240)" stroke="rgb(234,238,240)" stroke-width="1" opacity="0.996078431372549" d="M 9 3 L 16 3 L 16 14.5 Q 15 17 10.5 16 L 12 13.5 Q 11.3 11.3 13.5 12 L 13 10.5 L 15 6 L 9 6 L 9 3 Z " /><path fill="rgb(33,150,243)" stroke="rgb(33,150,243)" stroke-width="1" opacity="0.996078431372549" d="M 1.5 0 L 0.5 2 L 1.5 0 Z " /><path fill="rgb(131,190,238)" stroke="rgb(131,190,238)" stroke-width="1" opacity="0.996078431372549" d="M 5.5 5 L 5 6.5 L 3.5 9 L 3.5 6 L 5.5 5 Z " /><path fill="rgb(131,190,238)" stroke="rgb(131,190,238)" stroke-width="1" opacity="0.996078431372549" d="M 11.5 12 L 12 13.5 L 9 15.5 L 11.5 12 Z " /><path fill="rgb(168,180,187)" stroke="rgb(168,180,187)" stroke-width="1" opacity="1" d="M 10.5 6 L 12.5 6 L 14 6.5 L 10.5 9 L 10.5 6 Z " /><path fill="rgb(33,150,243)" stroke="rgb(33,150,243)" stroke-width="1" opacity="1" d="M 2.5 0 Q 8.3 -2.1 7 2.5 L 11 13 L 1.5 13 L 1 11.5 L 0 10.5 L 0 2.5 L 2.5 0 Z M 5 4 L 2 10 Q 5 11 4 9 L 7 10 L 6 7 Q 7 3 5 4 Z " /><path fill="rgb(193,217,236)" stroke="rgb(193,217,236)" stroke-width="1" opacity="0.9333333333333333" d="M 14.5 6 L 15 7.5 L 13 8.5 L 14.5 6 Z " /><path fill="rgb(124,138,146)" stroke="rgb(124,138,146)" stroke-width="1" opacity="1" d="M 13.5 7 L 12.5 11 Q 10.3 11.8 11 9.5 L 13.5 7 Z " /><path fill="rgb(0,0,0)" stroke="rgb(0,0,0)" stroke-width="1" opacity="0" d="M 8 0 L 15.5 0 L 16 2 L 8.5 2 L 8 0 Z " /><path fill="rgb(0,0,0)" stroke="rgb(0,0,0)" stroke-width="1" opacity="0" d="M 0 14 L 7.5 14 L 8 16 L 0.5 16 L 0 14 Z " /><path fill="rgb(33,149,245)" stroke="rgb(33,149,245)" stroke-width="1" opacity="0.2823529411764706" d="M 0.5 13 L 7 13.5 L 0.5 14 L 0.5 13 Z " /><path fill="rgb(26,124,216)" stroke="rgb(26,124,216)" stroke-width="1" opacity="0.9568627450980393" d="M 8 13 L 11 13.5 L 8 15 L 8 13 Z " /></svg>